#!OML:ASF H:\BabyWalks\Project 1\Capture day 1\Session 1\baby.ASF
:FULLY-SPECIFIED
:DEGREES
253
root -14.3808 16.0229 -2.3773 106.876 -85.6759 -124.536
lowerback 11.954 0.15988 0.625291
upperback 3.20058 0.190331 0.695359
thorax -3.35161 0.0376793 0.346312
lowerneck -6.73036 -0.414837 4.35976
upperneck 5.72686 -0.712451 -3.80116
head 3.01508 -0.39887 -2.05315
rclavicle -1.73937e-015 1.59028e-014
rhumerus 21.9683 -7.07412 -65.2091
rradius 67.6932
rwrist 21.9186
rhand 22.9387 -24.1758
rfingers 7.12502
rthumb 47.2622 -46.7257
lclavicle -1.73937e-015 1.59028e-014
lhumerus 22.0597 0.451072 61.2852
lradius 73.6273
lwrist -6.52779
lhand 25.5051 31.4022
lfingers 7.12502
lthumb 49.6245 52.8199
rfemur 2.55881 -12.8561 11.2135
rtibia 53.8289
rfoot -32.2076 -9.75198
rtoes -12.8576
lfemur 1.77977 11.9098 1.30017
ltibia 51.7286
lfoot -35.333 -8.40048
ltoes -13.2742
254
root -14.3804 16.024 -2.37407 106.818 -85.7809 -124.447
lowerback 11.9205 0.147083 0.560779
upperback 3.19536 0.164387 0.650647
thorax -3.33879 0.0254998 0.339921
lowerneck -6.71044 -0.367886 4.3648
upperneck 5.71765 -0.648206 -3.81979
head 3.01129 -0.367437 -2.05705
rclavicle 9.69075e-016 1.74931e-014
rhumerus 21.9629 -7.13588 -65.2018
rradius 67.633
rwrist 21.9213
rhand 22.8545 -24.0855
rfingers 7.12502
rthumb 47.1844 -46.67
lclavicle 9.69075e-016 1.74931e-014
lhumerus 22.0429 0.454542 61.2193
lradius 73.6161
lwrist -6.57296
lhand 25.4974 31.4106
lfingers 7.12502
lthumb 49.6174 52.8319
rfemur 2.54653 -12.8971 11.0815
rtibia 53.8165
rfoot -32.1907 -9.71395
rtoes -12.8168
lfemur 1.74616 11.8791 1.15204
ltibia 51.7056
lfoot -35.3292 -8.32317
ltoes -13.3857
255
root -14.3816 16.0277 -2.3756 106.916 -85.7617 -124.559
lowerback 11.9058 0.144368 0.523025
upperback 3.18857 0.15693 0.660254
thorax -3.33798 0.0221247 0.37228
lowerneck -6.71922 -0.398321 4.38368
upperneck 5.74428 -0.691095 -3.81409
head 3.02009 -0.388076 -2.06105
rclavicle -6.48535e-015 -5.56597e-015
rhumerus 21.9716 -7.12353 -65.1692
rradius 67.4931
rwrist 21.9093
rhand 22.7171 -24.0148
rfingers 7.12502
rthumb 47.0574 -46.6557
lclavicle -6.48535e-015 -5.56597e-015
lhumerus 21.9681 0.474277 61.1619
lradius 73.6019
lwrist -6.59514
lhand 25.4702 31.4531
lfingers 7.12502
lthumb 49.5925 52.8872
rfemur 2.56693 -12.8122 11.1449
rtibia 53.7979
rfoot -32.1858 -9.78675
rtoes -12.7302
lfemur 1.78096 11.8941 1.18455
ltibia 51.6777
lfoot -35.3102 -8.35709
ltoes -13.332
256
root -14.3819 16.0269 -2.37669 107.175 -85.7228 -124.841
lowerback 11.9282 0.162036 0.522224
upperback 3.18788 0.180574 0.668071
thorax -3.35106 0.0337453 0.377435
lowerneck -6.71282 -0.382565 4.41179
upperneck 5.74233 -0.67126 -3.83175
head 3.01936 -0.378189 -2.07114
rclavicle 6.58474e-015 8.74653e-015
rhumerus 21.9589 -7.16409 -65.1117
rradius 67.4247
rwrist 21.8836
rhand 22.6131 -23.9618
rfingers 7.12502
rthumb 46.9612 -46.6451
lclavicle 6.58474e-015 8.74653e-015
lhumerus 21.924 0.446479 61.1066
lradius 73.596
lwrist -6.63871
lhand 25.4934 31.3883
lfingers 7.12502
lthumb 49.6138 52.8114
rfemur 2.57572 -12.7505 11.2021
rtibia 53.7931
rfoot -32.1787 -9.82646
rtoes -12.7803
lfemur 1.82268 11.9172 1.23691
ltibia 51.668
lfoot -35.3057 -8.38983
ltoes -13.2245
257
root -14.3819 16.0266 -2.37524 107.027 -85.7266 -124.708
lowerback 12.003 0.159049 0.578539
upperback 3.16004 0.183552 0.631908
thorax -3.42073 0.0351155 0.307614
lowerneck -6.78173 -0.372748 4.37278
upperneck 5.81499 -0.658573 -3.79291
head 3.05761 -0.371636 -2.05253
rclavicle 1.88845e-015 -3.97569e-016
rhumerus 21.9135 -7.21055 -65.0754
rradius 67.3757
rwrist 21.8686
rhand 22.5337 -23.9118
rfingers 7.12502
rthumb 46.8877 -46.6273
lclavicle 1.88845e-015 -3.97569e-016
lhumerus 21.8859 0.408447 61.0292
lradius 73.5849
lwrist -6.70212
lhand 25.5475 31.3478
lfingers 7.12502
lthumb 49.6633 52.7456
rfemur 2.59733 -12.7524 11.1907
rtibia 53.7821
rfoot -32.1718 -9.8079
rtoes -12.7088
lfemur 1.8365 11.9094 1.23648
ltibia 51.6654
lfoot -35.2993 -8.38832
ltoes -13.2419
258
root -14.3815 16.0259 -2.3745 106.864 -85.7155 -124.532
lowerback 11.9633 0.15749 0.58051
upperback 3.18406 0.180808 0.641578
thorax -3.37393 0.0335333 0.316974
lowerneck -6.83302 -0.354285 4.33529
upperneck 5.79807 -0.633791 -3.7714
head 3.06252 -0.359776 -2.03775
rclavicle -8.29926e-015 -1.82882e-014
rhumerus 21.9877 -7.22222 -64.9719
rradius 67.362
rwrist 21.8213
rhand 22.5624 -23.9322
rfingers 7.12502
rthumb 46.9143 -46.6361
lclavicle -8.29926e-015 -1.82882e-014
lhumerus 21.9142 0.455263 60.9936
lradius 73.5688
lwrist -6.75406
lhand 25.5399 31.3685
lfingers 7.12502
lthumb 49.6564 52.7698
rfemur 2.58325 -12.7415 11.2182
rtibia 53.7815
rfoot -32.1574 -9.82988
rtoes -12.7027
lfemur 1.81141 11.9066 1.24788
ltibia 51.6818
lfoot -35.3192 -8.36793
ltoes -13.3287
